<?xml version="1.0" encoding="utf-8"?>
<!-- Padlock icon by Arthur Shlain from Usefulicons.com -->
<svg xmlns="http://www.w3.org/2000/svg" xmlns:xlink="http://www.w3.org/1999/xlink" xml:space="preserve" version="1.1" x="0px" y="0px" viewBox="0 0 100 100" width="400px" height="400px"><g style="fill: #ff0000"><path d="M40,30C40,24.477,44.477,20,50,20S60,24.477,60,30L60,40L70,40L70,30C70,18.954,61.046,10,50,10S30,18.954,30,30L30,40L40,40L40,30Z" stroke="none"></path><path d="M20,90L80,90L80,45L20,45L20,90ZM50,60C52.761,60,55,62.239,55,65C55,66.846,53.988,68.44,52.5,69.306L52.5,75L47.5,75L47.5,69.306C46.012,68.44,45,66.846,45,65C45,62.239,47.239,60,50,60Z" stroke="none"></path></g></svg>