<?xml version="1.0" encoding="utf-8"?>
<!-- Padlock Open icon by Arthur Shlain from Usefulicons.com -->
<svg xmlns="http://www.w3.org/2000/svg" xmlns:xlink="http://www.w3.org/1999/xlink" xml:space="preserve" version="1.1" x="0px" y="0px" viewBox="0 0 100 100" width="400px" height="400px"><g style="fill: #00ff00"><path d="M40,30L40,40L50,40L50,30C50,18.954,41.046,10,30,10S10,18.954,10,30L10,50L20,50L20,30C20,24.477,24.477,20,30,20S40,24.477,40,30Z" stroke="none"></path><path d="M30,45L30,90L90,90L90,45L30,45ZM62.5,69.306L62.5,75L57.5,75L57.5,69.306C56.012,68.44,55,66.846,55,65C55,62.239,57.239,60,60,60S65,62.239,65,65C65,66.846,63.988,68.44,62.5,69.306Z" stroke="none"></path></g></svg>